JosefinSlab-BoldItalic.ufo
<glyph name="zero" format="2">
  <advance width="616"/>
  <unicode hex="0030"/>
  <outline>
    <contour>
      <point x="69" y="327" type="qcurve" smooth="yes"/>
      <point x="80" y="403"/>
      <point x="139" y="526"/>
      <point x="182" y="569" type="qcurve" smooth="yes" name="inserted"/>
      <point x="224" y="612"/>
      <point x="329" y="658"/>
      <point x="385" y="658" type="qcurve" smooth="yes"/>
      <point x="441" y="658"/>
      <point x="532" y="610"/>
      <point x="562" y="567" type="qcurve" smooth="yes" name="inserted"/>
      <point x="592" y="523"/>
      <point x="615" y="399"/>
      <point x="604" y="323" type="qcurve" smooth="yes"/>
      <point x="593" y="247"/>
      <point x="530" y="125"/>
      <point x="486" y="82" type="qcurve" smooth="yes" name="inserted"/>
      <point x="442" y="38"/>
      <point x="339" y="-8"/>
      <point x="288" y="-8" type="qcurve" smooth="yes"/>
      <point x="237" y="-8"/>
      <point x="147" y="40"/>
      <point x="116" y="84" type="qcurve" smooth="yes" name="inserted"/>
      <point x="85" y="128"/>
      <point x="58" y="251"/>
    </contour>
    <contour>
      <point x="153" y="326" type="qcurve" smooth="yes"/>
      <point x="145" y="273"/>
      <point x="161" y="181"/>
      <point x="181" y="147" type="qcurve" smooth="yes" name="inserted"/>
      <point x="201" y="113"/>
      <point x="261" y="73"/>
      <point x="299" y="73" type="qcurve" smooth="yes"/>
      <point x="336" y="73"/>
      <point x="409" y="111"/>
      <point x="440" y="145" type="qcurve" smooth="yes" name="inserted"/>
      <point x="470" y="179"/>
      <point x="512" y="271"/>
      <point x="520" y="324" type="qcurve" smooth="yes"/>
      <point x="526" y="360"/>
      <point x="520" y="448"/>
      <point x="504" y="487" type="qcurve" smooth="yes" name="inserted"/>
      <point x="488" y="525"/>
      <point x="425" y="577"/>
      <point x="374" y="577" type="qcurve" smooth="yes"/>
      <point x="323" y="577"/>
      <point x="245" y="526"/>
      <point x="218" y="488" type="qcurve" smooth="yes" name="inserted"/>
      <point x="190" y="450"/>
      <point x="158" y="362"/>
    </contour>
  </outline>
</glyph>
<glyph name="one" format="2">
  <advance width="290"/>
  <unicode hex="0031"/>
  <outline>
    <contour>
      <point x="29" y="79" type="line"/>
      <point x="107" y="79" type="line"/>
      <point x="176" y="569" type="line"/>
      <point x="108" y="569" type="line"/>
      <point x="119" y="650" type="line"/>
      <point x="271" y="650" type="line"/>
      <point x="191" y="79" type="line"/>
      <point x="270" y="79" type="line"/>
      <point x="259" y="0" type="line"/>
      <point x="18" y="0" type="line"/>
    </contour>
  </outline>
</glyph>
<glyph name="two" format="2">
  <advance width="519"/>
  <unicode hex="0032"/>
  <outline>
    <contour>
      <point x="238" y="81" type="qcurve"/>
      <point x="402" y="81" type="line"/>
      <point x="415" y="174" type="line"/>
      <point x="494" y="174" type="line"/>
      <point x="469" y="0" type="line"/>
      <point x="26" y="0" type="line"/>
      <point x="96" y="62"/>
      <point x="229" y="179"/>
      <point x="282" y="234" type="qcurve" smooth="yes" name="inserted"/>
      <point x="334" y="288"/>
      <point x="403" y="391"/>
      <point x="410" y="438" type="qcurve" smooth="yes"/>
      <point x="415" y="475"/>
      <point x="398" y="527"/>
      <point x="382" y="544" type="qcurve" smooth="yes" name="inserted"/>
      <point x="366" y="561"/>
      <point x="325" y="577"/>
      <point x="307" y="577" type="qcurve" smooth="yes"/>
      <point x="269" y="577"/>
      <point x="217" y="551"/>
      <point x="201" y="532" type="qcurve" smooth="yes" name="inserted"/>
      <point x="184" y="513"/>
      <point x="167" y="471"/>
      <point x="165" y="455" type="qcurve" smooth="yes"/>
      <point x="161" y="423" name="inserted"/>
      <point x="173" y="371"/>
      <point x="190" y="351" type="qcurve"/>
      <point x="132" y="300" type="line"/>
      <point x="102" y="322"/>
      <point x="75" y="416"/>
      <point x="81" y="455" type="qcurve" smooth="yes"/>
      <point x="87" y="495"/>
      <point x="124" y="569"/>
      <point x="155" y="597" type="qcurve" smooth="yes" name="inserted"/>
      <point x="186" y="625"/>
      <point x="268" y="658"/>
      <point x="319" y="658" type="qcurve" smooth="yes"/>
      <point x="365" y="658"/>
      <point x="436" y="624"/>
      <point x="459" y="596" type="qcurve" smooth="yes" name="inserted"/>
      <point x="482" y="567"/>
      <point x="502" y="492"/>
      <point x="496" y="450" type="qcurve" smooth="yes"/>
      <point x="489" y="400"/>
      <point x="441" y="307"/>
      <point x="406" y="261" type="qcurve" smooth="yes" name="inserted"/>
      <point x="371" y="215"/>
      <point x="284" y="126"/>
    </contour>
  </outline>
</glyph>
<glyph name="three" format="2">
  <advance width="515"/>
  <unicode hex="0033"/>
  <outline>
    <contour>
      <point x="184" y="326" type="qcurve"/>
      <point x="357" y="568" type="line"/>
      <point x="246" y="568" type="line"/>
      <point x="240" y="521" type="line"/>
      <point x="161" y="521" type="line"/>
      <point x="179" y="650" type="line"/>
      <point x="508" y="650" type="line"/>
      <point x="331" y="412" type="line"/>
      <point x="362" y="400"/>
      <point x="411" y="361"/>
      <point x="428" y="335" type="qcurve" smooth="yes" name="inserted"/>
      <point x="444" y="309"/>
      <point x="457" y="245"/>
      <point x="452" y="209" type="qcurve" smooth="yes"/>
      <point x="446" y="164"/>
      <point x="399" y="85"/>
      <point x="365" y="56" type="qcurve" smooth="yes" name="inserted"/>
      <point x="331" y="26"/>
      <point x="247" y="-8"/>
      <point x="202" y="-8" type="qcurve" smooth="yes"/>
      <point x="154" y="-8"/>
      <point x="78" y="31"/>
      <point x="52" y="63" type="qcurve"/>
      <point x="121" y="120" type="line"/>
      <point x="136" y="98"/>
      <point x="184" y="73"/>
      <point x="214" y="73" type="qcurve" smooth="yes"/>
      <point x="242" y="73"/>
      <point x="294" y="95"/>
      <point x="315" y="114" type="qcurve" smooth="yes" name="inserted"/>
      <point x="336" y="132"/>
      <point x="365" y="181"/>
      <point x="369" y="209" type="qcurve" smooth="yes"/>
      <point x="373" y="237"/>
      <point x="358" y="286"/>
      <point x="342" y="304" type="qcurve" smooth="yes" name="inserted"/>
      <point x="326" y="322"/>
      <point x="280" y="343"/>
      <point x="252" y="343" type="qcurve" smooth="yes"/>
      <point x="234" y="343" name="inserted"/>
      <point x="200" y="335"/>
    </contour>
  </outline>
</glyph>
<glyph name="five" format="2">
  <advance width="543"/>
  <unicode hex="0035"/>
  <outline>
    <contour>
      <point x="506" y="650" type="line"/>
      <point x="488" y="521" type="line"/>
      <point x="409" y="521" type="line"/>
      <point x="415" y="569" type="line"/>
      <point x="291" y="569" type="line"/>
      <point x="271" y="422" type="line"/>
      <point x="277" y="423"/>
      <point x="290" y="424"/>
      <point x="297" y="424" type="qcurve" smooth="yes"/>
      <point x="342" y="424"/>
      <point x="417" y="391"/>
      <point x="443" y="362" type="qcurve" smooth="yes" name="inserted"/>
      <point x="468" y="332"/>
      <point x="492" y="254"/>
      <point x="486" y="209" type="qcurve" smooth="yes"/>
      <point x="480" y="164"/>
      <point x="433" y="85"/>
      <point x="399" y="56" type="qcurve" smooth="yes" name="inserted"/>
      <point x="365" y="26"/>
      <point x="281" y="-8"/>
      <point x="236" y="-8" type="qcurve" smooth="yes"/>
      <point x="192" y="-8"/>
      <point x="120" y="24"/>
      <point x="95" y="53" type="qcurve"/>
      <point x="164" y="109" type="line"/>
      <point x="179" y="92"/>
      <point x="222" y="73"/>
      <point x="248" y="73" type="qcurve" smooth="yes"/>
      <point x="276" y="73"/>
      <point x="328" y="95"/>
      <point x="349" y="114" type="qcurve" smooth="yes" name="inserted"/>
      <point x="370" y="132"/>
      <point x="399" y="181"/>
      <point x="403" y="209" type="qcurve" smooth="yes"/>
      <point x="407" y="237"/>
      <point x="392" y="286"/>
      <point x="376" y="304" type="qcurve" smooth="yes" name="inserted"/>
      <point x="360" y="322"/>
      <point x="314" y="343"/>
      <point x="286" y="343" type="qcurve" smooth="yes"/>
      <point x="251" y="343"/>
      <point x="190" y="320"/>
      <point x="168" y="292" type="qcurve"/>
      <point x="219" y="650" type="line"/>
    </contour>
  </outline>
</glyph>
<glyph name="six" format="2">
  <advance width="520"/>
  <unicode hex="0036"/>
  <outline>
    <contour>
      <point x="149" y="209" type="qcurve" smooth="yes"/>
      <point x="145" y="181"/>
      <point x="158" y="132"/>
      <point x="174" y="114" type="qcurve" smooth="yes" name="inserted"/>
      <point x="189" y="95"/>
      <point x="234" y="73"/>
      <point x="261" y="73" type="qcurve" smooth="yes"/>
      <point x="289" y="73"/>
      <point x="341" y="95"/>
      <point x="362" y="114" type="qcurve" smooth="yes" name="inserted"/>
      <point x="383" y="132"/>
      <point x="412" y="181"/>
      <point x="416" y="209" type="qcurve" smooth="yes"/>
      <point x="420" y="237"/>
      <point x="405" y="286"/>
      <point x="389" y="304" type="qcurve" smooth="yes" name="inserted"/>
      <point x="373" y="322"/>
      <point x="327" y="343"/>
      <point x="299" y="343" type="qcurve" smooth="yes"/>
      <point x="272" y="343"/>
      <point x="221" y="322"/>
      <point x="201" y="304" type="qcurve" smooth="yes" name="inserted"/>
      <point x="180" y="286"/>
      <point x="153" y="237"/>
    </contour>
    <contour>
      <point x="61" y="197" type="qcurve" smooth="yes"/>
      <point x="71" y="269"/>
      <point x="150" y="394"/>
      <point x="206" y="448" type="qcurve" smooth="yes" name="inserted"/>
      <point x="261" y="502"/>
      <point x="392" y="596"/>
      <point x="454" y="637" type="qcurve"/>
      <point x="465" y="621"/>
      <point x="486" y="589"/>
      <point x="497" y="573" type="qcurve"/>
      <point x="466" y="554"/>
      <point x="412" y="519"/>
      <point x="389" y="503" type="qcurve" smooth="yes"/>
      <point x="359" y="481"/>
      <point x="309" y="441"/>
      <point x="289" y="423" type="qcurve"/>
      <point x="294" y="423"/>
      <point x="305" y="424"/>
      <point x="310" y="424" type="qcurve" smooth="yes"/>
      <point x="355" y="424"/>
      <point x="430" y="391"/>
      <point x="456" y="362" type="qcurve" smooth="yes" name="inserted"/>
      <point x="481" y="332"/>
      <point x="505" y="254"/>
      <point x="499" y="209" type="qcurve" smooth="yes"/>
      <point x="493" y="164"/>
      <point x="446" y="85"/>
      <point x="412" y="56" type="qcurve" smooth="yes" name="inserted"/>
      <point x="378" y="26"/>
      <point x="294" y="-8"/>
      <point x="249" y="-8" type="qcurve" smooth="yes"/>
      <point x="206" y="-8"/>
      <point x="133" y="24"/>
      <point x="108" y="52" type="qcurve" smooth="yes" name="inserted"/>
      <point x="82" y="79"/>
      <point x="57" y="154"/>
    </contour>
  </outline>
</glyph>
<glyph name="seven" format="2">
  <advance width="469"/>
  <unicode hex="0037"/>
  <outline>
    <contour>
      <point x="512" y="650" type="line"/>
      <point x="129" y="0" type="line"/>
      <point x="35" y="0" type="line"/>
      <point x="371" y="568" type="line"/>
      <point x="167" y="568" type="line"/>
      <point x="160" y="521" type="line"/>
      <point x="81" y="521" type="line"/>
      <point x="99" y="650" type="line"/>
    </contour>
  </outline>
</glyph>
<glyph name="eight" format="2">
  <advance width="510"/>
  <unicode hex="0038"/>
  <outline>
    <contour>
      <point x="224" y="498" type="qcurve" smooth="yes"/>
      <point x="221" y="481"/>
      <point x="231" y="452"/>
      <point x="241" y="442" type="qcurve" smooth="yes"/>
      <point x="249" y="434"/>
      <point x="274" y="424"/>
      <point x="288" y="424" type="qcurve" smooth="yes"/>
      <point x="302" y="424"/>
      <point x="329" y="433"/>
      <point x="340" y="441" type="qcurve" smooth="yes"/>
      <point x="353" y="451"/>
      <point x="371" y="480"/>
      <point x="374" y="498" type="qcurve" smooth="yes"/>
      <point x="377" y="515"/>
      <point x="368" y="545"/>
      <point x="359" y="555" type="qcurve" smooth="yes"/>
      <point x="351" y="565"/>
      <point x="325" y="577"/>
      <point x="310" y="577" type="qcurve" smooth="yes"/>
      <point x="295" y="577"/>
      <point x="266" y="564"/>
      <point x="254" y="553" type="qcurve" smooth="yes" name="inserted"/>
      <point x="242" y="542"/>
      <point x="226" y="514"/>
    </contour>
    <contour>
      <point x="125" y="209" type="qcurve" smooth="yes"/>
      <point x="121" y="181"/>
      <point x="135" y="132"/>
      <point x="150" y="114" type="qcurve" smooth="yes" name="inserted"/>
      <point x="165" y="95"/>
      <point x="210" y="73"/>
      <point x="237" y="73" type="qcurve" smooth="yes"/>
      <point x="265" y="73"/>
      <point x="317" y="95"/>
      <point x="339" y="114" type="qcurve" smooth="yes" name="inserted"/>
      <point x="360" y="132"/>
      <point x="388" y="181"/>
      <point x="392" y="209" type="qcurve" smooth="yes"/>
      <point x="396" y="236"/>
      <point x="382" y="284"/>
      <point x="367" y="302" type="qcurve" smooth="yes" name="inserted"/>
      <point x="352" y="320"/>
      <point x="307" y="342"/>
      <point x="280" y="343" type="qcurve" smooth="yes"/>
      <point x="251" y="343"/>
      <point x="198" y="322"/>
      <point x="178" y="304" type="qcurve" smooth="yes" name="inserted"/>
      <point x="157" y="286"/>
      <point x="129" y="237"/>
    </contour>
    <contour>
      <point x="39" y="209" type="qcurve" smooth="yes"/>
      <point x="44" y="244"/>
      <point x="74" y="308"/>
      <point x="97" y="334" type="qcurve" smooth="yes"/>
      <point x="112" y="351"/>
      <point x="147" y="380"/>
      <point x="167" y="391" type="qcurve"/>
      <point x="150" y="411"/>
      <point x="134" y="466"/>
      <point x="139" y="498" type="qcurve" smooth="yes"/>
      <point x="143" y="531"/>
      <point x="176" y="589"/>
      <point x="200" y="611" type="qcurve" smooth="yes" name="inserted"/>
      <point x="225" y="633"/>
      <point x="286" y="658"/>
      <point x="319" y="658" type="qcurve" smooth="yes"/>
      <point x="352" y="658"/>
      <point x="407" y="633"/>
      <point x="426" y="611" type="qcurve" smooth="yes" name="inserted"/>
      <point x="444" y="589"/>
      <point x="461" y="531"/>
      <point x="457" y="498" type="qcurve" smooth="yes"/>
      <point x="452" y="466"/>
      <point x="421" y="411"/>
      <point x="398" y="391" type="qcurve"/>
      <point x="413" y="381"/>
      <point x="439" y="354"/>
      <point x="448" y="339" type="qcurve" smooth="yes"/>
      <point x="466" y="312"/>
      <point x="480" y="246"/>
      <point x="475" y="209" type="qcurve" smooth="yes"/>
      <point x="469" y="164"/>
      <point x="423" y="85"/>
      <point x="389" y="56" type="qcurve" smooth="yes" name="inserted"/>
      <point x="355" y="26"/>
      <point x="271" y="-8"/>
      <point x="226" y="-8" type="qcurve" smooth="yes"/>
      <point x="181" y="-8"/>
      <point x="107" y="26"/>
      <point x="82" y="56" type="qcurve" smooth="yes" name="inserted"/>
      <point x="56" y="85"/>
      <point x="33" y="164"/>
    </contour>
  </outline>
</glyph>
<glyph name="nine" format="2">
  <advance width="525"/>
  <unicode hex="0039"/>
  <outline>
    <contour>
      <point x="420" y="419" type="qcurve" smooth="yes"/>
      <point x="424" y="447"/>
      <point x="411" y="496"/>
      <point x="396" y="515" type="qcurve" smooth="yes" name="inserted"/>
      <point x="380" y="533"/>
      <point x="335" y="555"/>
      <point x="308" y="555" type="qcurve" smooth="yes"/>
      <point x="280" y="555"/>
      <point x="228" y="533"/>
      <point x="207" y="515" type="qcurve" smooth="yes" name="inserted"/>
      <point x="186" y="496"/>
      <point x="157" y="447"/>
      <point x="153" y="419" type="qcurve" smooth="yes"/>
      <point x="149" y="391"/>
      <point x="164" y="342"/>
      <point x="180" y="324" type="qcurve" smooth="yes" name="inserted"/>
      <point x="196" y="306"/>
      <point x="242" y="285"/>
      <point x="270" y="285" type="qcurve" smooth="yes"/>
      <point x="297" y="285"/>
      <point x="348" y="306"/>
      <point x="369" y="324" type="qcurve" smooth="yes" name="inserted"/>
      <point x="389" y="342"/>
      <point x="416" y="391"/>
    </contour>
    <contour>
      <point x="506" y="419" type="qcurve" smooth="yes"/>
      <point x="497" y="351"/>
      <point x="417" y="229"/>
      <point x="360" y="176" type="qcurve" smooth="yes" name="inserted"/>
      <point x="304" y="122"/>
      <point x="174" y="30"/>
      <point x="115" y="-9" type="qcurve"/>
      <point x="104" y="7"/>
      <point x="83" y="39"/>
      <point x="72" y="55" type="qcurve"/>
      <point x="107" y="76"/>
      <point x="168" y="117"/>
      <point x="193" y="135" type="qcurve" smooth="yes"/>
      <point x="219" y="154"/>
      <point x="262" y="189"/>
      <point x="280" y="205" type="qcurve"/>
      <point x="275" y="204"/>
      <point x="264" y="204"/>
      <point x="259" y="204" type="qcurve" smooth="yes"/>
      <point x="214" y="204"/>
      <point x="139" y="237"/>
      <point x="114" y="266" type="qcurve" smooth="yes" name="inserted"/>
      <point x="88" y="296"/>
      <point x="64" y="374"/>
      <point x="70" y="419" type="qcurve" smooth="yes"/>
      <point x="76" y="464"/>
      <point x="123" y="543"/>
      <point x="157" y="572" type="qcurve" smooth="yes" name="inserted"/>
      <point x="191" y="602"/>
      <point x="275" y="636"/>
      <point x="320" y="636" type="qcurve" smooth="yes"/>
      <point x="365" y="636"/>
      <point x="439" y="601"/>
      <point x="464" y="572" type="qcurve" smooth="yes" name="inserted"/>
      <point x="489" y="542"/>
      <point x="512" y="463"/>
    </contour>
  </outline>
</glyph>
<glyph name="G" format="2">
  <advance width="661"/>
  <unicode hex="0047"/>
  <outline>
    <contour>
      <point x="617" y="298" type="line"/>
      <point x="581" y="40" type="line"/>
      <point x="538" y="17"/>
      <point x="444" y="-10"/>
      <point x="393" y="-10" type="qcurve" smooth="yes"/>
      <point x="319" y="-10"/>
      <point x="197" y="46"/>
      <point x="155" y="95" type="qcurve" smooth="yes" name="inserted"/>
      <point x="113" y="143"/>
      <point x="75" y="273"/>
      <point x="85" y="347" type="qcurve" smooth="yes"/>
      <point x="95" y="421"/>
      <point x="170" y="552"/>
      <point x="226" y="601" type="qcurve" smooth="yes" name="inserted"/>
      <point x="281" y="649"/>
      <point x="419" y="706"/>
      <point x="493" y="706" type="qcurve" smooth="yes"/>
      <point x="544" y="706"/>
      <point x="631" y="680"/>
      <point x="669" y="656" type="qcurve"/>
      <point x="613" y="589" type="line"/>
      <point x="585" y="607"/>
      <point x="520" y="627"/>
      <point x="482" y="627" type="qcurve" smooth="yes"/>
      <point x="425" y="627"/>
      <point x="319" y="583"/>
      <point x="277" y="545" type="qcurve" smooth="yes" name="inserted"/>
      <point x="234" y="506"/>
      <point x="176" y="404"/>
      <point x="168" y="347" type="qcurve" smooth="yes"/>
      <point x="160" y="290"/>
      <point x="189" y="188"/>
      <point x="221" y="151" type="qcurve" smooth="yes" name="inserted"/>
      <point x="253" y="113"/>
      <point x="346" y="69"/>
      <point x="403" y="69" type="qcurve" smooth="yes"/>
      <point x="429" y="69" name="inserted"/>
      <point x="480" y="78"/>
      <point x="505" y="87" type="qcurve"/>
      <point x="523" y="219" type="line"/>
      <point x="420" y="219" type="line"/>
      <point x="431" y="298" type="line"/>
    </contour>
  </outline>
</glyph>
<glyph name="X" format="2">
  <advance width="694"/>
  <unicode hex="0058"/>
  <outline>
    <contour>
      <point x="133" y="700" type="line"/>
      <point x="375" y="700" type="line"/>
      <point x="364" y="621" type="line"/>
      <point x="300" y="621" type="line"/>
      <point x="322" y="577"/>
      <point x="362" y="492"/>
      <point x="384" y="449" type="qcurve"/>
      <point x="397" y="422" type="line"/>
      <point x="423" y="449" type="line"/>
      <point x="559" y="621" type="line"/>
      <point x="504" y="621" type="line"/>
      <point x="515" y="700" type="line"/>
      <point x="757" y="700" type="line"/>
      <point x="746" y="621" type="line"/>
      <point x="657" y="621" type="line"/>
      <point x="603" y="553"/>
      <point x="489" y="420"/>
      <point x="435" y="353" type="qcurve"/>
      <point x="470" y="284"/>
      <point x="543" y="148"/>
      <point x="578" y="79" type="qcurve"/>
      <point x="670" y="79" type="line"/>
      <point x="659" y="0" type="line"/>
      <point x="417" y="0" type="line"/>
      <point x="428" y="79" type="line"/>
      <point x="483" y="79" type="line"/>
      <point x="392" y="258" type="line"/>
      <point x="389" y="265"/>
      <point x="382" y="282"/>
      <point x="380" y="289" type="qcurve"/>
      <point x="357" y="258" type="line"/>
      <point x="321" y="213"/>
      <point x="251" y="124"/>
      <point x="216" y="79" type="qcurve"/>
      <point x="288" y="79" type="line"/>
      <point x="277" y="0" type="line"/>
      <point x="35" y="0" type="line"/>
      <point x="46" y="79" type="line"/>
      <point x="121" y="79" type="line"/>
      <point x="342" y="357" type="line"/>
      <point x="207" y="621" type="line"/>
      <point x="122" y="621" type="line"/>
    </contour>
  </outline>
</glyph>
<glyph name="Y" format="2">
  <advance width="789"/>
  <unicode hex="0059"/>
  <outline>
    <contour>
      <point x="301" y="79" type="line"/>
      <point x="368" y="79" type="line"/>
      <point x="394" y="270" type="line"/>
      <point x="354" y="358"/>
      <point x="262" y="533"/>
      <point x="223" y="621" type="qcurve"/>
      <point x="122" y="621" type="line"/>
      <point x="133" y="700" type="line"/>
      <point x="375" y="700" type="line"/>
      <point x="364" y="621" type="line"/>
      <point x="314" y="621" type="line"/>
      <point x="342" y="560"/>
      <point x="397" y="438"/>
      <point x="425" y="377" type="qcurve"/>
      <point x="442" y="346" type="line"/>
      <point x="443" y="346" type="line"/>
      <point x="469" y="377" type="line"/>
      <point x="648" y="621" type="line"/>
      <point x="599" y="621" type="line"/>
      <point x="610" y="700" type="line"/>
      <point x="852" y="700" type="line"/>
      <point x="841" y="621" type="line"/>
      <point x="740" y="621" type="line"/>
      <point x="675" y="533"/>
      <point x="542" y="357"/>
      <point x="477" y="269" type="qcurve"/>
      <point x="451" y="79" type="line"/>
      <point x="524" y="79" type="line"/>
      <point x="513" y="0" type="line"/>
      <point x="290" y="0" type="line"/>
    </contour>
  </outline>
</glyph>
<glyph name="g" format="2">
  <advance width="547"/>
  <unicode hex="0067"/>
  <outline>
    <contour>
      <point x="414" y="375" type="qcurve"/>
      <point x="559" y="375" type="line"/>
      <point x="548" y="296" type="line"/>
      <point x="472" y="296" type="line"/>
      <point x="422" y="-60" type="line" smooth="yes"/>
      <point x="416" y="-100"/>
      <point x="378" y="-172"/>
      <point x="348" y="-197" type="qcurve" smooth="yes" name="inserted"/>
      <point x="317" y="-223"/>
      <point x="246" y="-250"/>
      <point x="204" y="-250" type="qcurve" smooth="yes"/>
      <point x="159" y="-250"/>
      <point x="73" y="-218"/>
      <point x="46" y="-190" type="qcurve"/>
      <point x="110" y="-122" type="line"/>
      <point x="129" y="-142"/>
      <point x="178" y="-164"/>
      <point x="207" y="-164" type="qcurve" smooth="yes"/>
      <point x="233" y="-164"/>
      <point x="281" y="-149"/>
      <point x="299" y="-133" type="qcurve" smooth="yes" name="inserted"/>
      <point x="316" y="-118"/>
      <point x="338" y="-72"/>
      <point x="341" y="-47" type="qcurve" smooth="yes"/>
      <point x="349" y="11" type="line" smooth="yes"/>
      <point x="350" y="16"/>
      <point x="351" y="25"/>
      <point x="353" y="31" type="qcurve"/>
      <point x="340" y="17"/>
      <point x="283" y="-8"/>
      <point x="230" y="-8" type="qcurve" smooth="yes"/>
      <point x="188" y="-8"/>
      <point x="118" y="23"/>
      <point x="95" y="50" type="qcurve" smooth="yes" name="inserted"/>
      <point x="72" y="76"/>
      <point x="50" y="147"/>
      <point x="56" y="187" type="qcurve" smooth="yes"/>
      <point x="62" y="226"/>
      <point x="103" y="298"/>
      <point x="134" y="325" type="qcurve" smooth="yes" name="inserted"/>
      <point x="165" y="352"/>
      <point x="243" y="384"/>
      <point x="285" y="384" type="qcurve" smooth="yes"/>
      <point x="313" y="384"/>
      <point x="354" y="373"/>
      <point x="368" y="365" type="qcurve" smooth="yes"/>
      <point x="381" y="357"/>
      <point x="399" y="337"/>
      <point x="404" y="328" type="qcurve"/>
      <point x="406" y="339"/>
      <point x="412" y="363"/>
    </contour>
    <contour>
      <point x="140" y="188" type="qcurve" smooth="yes"/>
      <point x="136" y="160"/>
      <point x="151" y="114"/>
      <point x="168" y="98" type="qcurve" smooth="yes"/>
      <point x="181" y="86"/>
      <point x="218" y="72"/>
      <point x="241" y="72" type="qcurve" smooth="yes"/>
      <point x="267" y="72"/>
      <point x="312" y="90"/>
      <point x="330" y="106" type="qcurve" smooth="yes" name="inserted"/>
      <point x="348" y="121"/>
      <point x="371" y="164"/>
      <point x="374" y="188" type="qcurve" smooth="yes"/>
      <point x="378" y="213"/>
      <point x="366" y="256"/>
      <point x="353" y="271" type="qcurve" smooth="yes"/>
      <point x="339" y="286"/>
      <point x="299" y="303"/>
      <point x="273" y="303" type="qcurve" smooth="yes"/>
      <point x="247" y="303"/>
      <point x="202" y="286"/>
      <point x="184" y="270" type="qcurve" smooth="yes" name="inserted"/>
      <point x="166" y="255"/>
      <point x="143" y="213"/>
    </contour>
  </outline>
</glyph>
<glyph name="q" format="2">
  <advance width="551"/>
  <unicode hex="0071"/>
  <outline>
    <contour>
      <point x="258" y="-171" type="line"/>
      <point x="334" y="-171" type="line"/>
      <point x="357" y="-4" type="line" smooth="yes"/>
      <point x="358" y="1"/>
      <point x="362" y="25"/>
      <point x="364" y="32" type="qcurve"/>
      <point x="351" y="17"/>
      <point x="288" y="-9"/>
      <point x="239" y="-9" type="qcurve" smooth="yes"/>
      <point x="197" y="-9"/>
      <point x="128" y="22"/>
      <point x="105" y="49" type="qcurve" smooth="yes" name="inserted"/>
      <point x="81" y="76"/>
      <point x="60" y="148"/>
      <point x="66" y="188" type="qcurve" smooth="yes"/>
      <point x="72" y="228"/>
      <point x="113" y="299"/>
      <point x="144" y="326" type="qcurve" smooth="yes" name="inserted"/>
      <point x="175" y="353"/>
      <point x="253" y="384"/>
      <point x="295" y="384" type="qcurve" smooth="yes"/>
      <point x="347" y="384"/>
      <point x="404" y="346"/>
      <point x="414" y="328" type="qcurve"/>
      <point x="416" y="339"/>
      <point x="422" y="363"/>
      <point x="424" y="375" type="qcurve"/>
      <point x="573" y="375" type="line"/>
      <point x="562" y="296" type="line"/>
      <point x="482" y="296" type="line"/>
      <point x="417" y="-171" type="line"/>
      <point x="480" y="-171" type="line"/>
      <point x="469" y="-250" type="line"/>
      <point x="247" y="-250" type="line"/>
    </contour>
    <contour>
      <point x="150" y="188" type="qcurve" smooth="yes"/>
      <point x="146" y="160"/>
      <point x="161" y="113"/>
      <point x="179" y="97" type="qcurve" smooth="yes"/>
      <point x="192" y="85"/>
      <point x="229" y="72"/>
      <point x="251" y="72" type="qcurve" smooth="yes"/>
      <point x="277" y="72"/>
      <point x="322" y="90"/>
      <point x="340" y="106" type="qcurve" smooth="yes" name="inserted"/>
      <point x="358" y="121"/>
      <point x="381" y="164"/>
      <point x="384" y="188" type="qcurve" smooth="yes"/>
      <point x="388" y="214"/>
      <point x="375" y="259"/>
      <point x="360" y="274" type="qcurve" smooth="yes"/>
      <point x="347" y="288"/>
      <point x="308" y="303"/>
      <point x="283" y="303" type="qcurve" smooth="yes"/>
      <point x="257" y="303"/>
      <point x="212" y="286"/>
      <point x="194" y="270" type="qcurve" smooth="yes" name="inserted"/>
      <point x="176" y="255"/>
      <point x="153" y="213"/>
    </contour>
  </outline>
</glyph>
<glyph name="r" format="2">
  <advance width="370"/>
  <unicode hex="0072"/>
  <outline>
    <contour>
      <point x="46" y="79" type="line"/>
      <point x="122" y="79" type="line"/>
      <point x="152" y="296" type="line"/>
      <point x="86" y="296" type="line"/>
      <point x="97" y="375" type="line"/>
      <point x="236" y="375" type="line"/>
      <point x="235" y="366" type="line" smooth="yes"/>
      <point x="233" y="342"/>
      <point x="232" y="303"/>
      <point x="230" y="279" type="qcurve"/>
      <point x="245" y="304"/>
      <point x="288" y="343"/>
      <point x="310" y="356.5" type="qcurve" smooth="yes" name="inserted"/>
      <point x="332" y="370"/>
      <point x="373" y="384"/>
      <point x="388" y="384" type="qcurve"/>
      <point x="369" y="288" type="line"/>
      <point x="339" y="288"/>
      <point x="286" y="270"/>
      <point x="266" y="254" type="qcurve" smooth="yes" name="inserted"/>
      <point x="246" y="238"/>
      <point x="221" y="194"/>
      <point x="217" y="168" type="qcurve" smooth="yes"/>
      <point x="205" y="79" type="line"/>
      <point x="268" y="79" type="line"/>
      <point x="257" y="0" type="line"/>
      <point x="35" y="0" type="line"/>
    </contour>
  </outline>
</glyph>
<glyph name="s" format="2">
  <advance width="332"/>
  <unicode hex="0073"/>
  <outline>
    <contour>
      <point x="42" y="33" type="qcurve"/>
      <point x="54" y="120" type="line"/>
      <point x="128" y="120" type="line"/>
      <point x="123" y="81" type="line"/>
      <point x="134" y="76"/>
      <point x="157" y="73"/>
      <point x="174" y="73" type="qcurve" smooth="yes"/>
      <point x="181" y="73"/>
      <point x="197" y="77"/>
      <point x="205" y="82" type="qcurve" smooth="yes"/>
      <point x="214" y="87"/>
      <point x="222" y="99"/>
      <point x="223" y="109" type="qcurve" smooth="yes"/>
      <point x="225" y="126"/>
      <point x="207" y="146"/>
      <point x="190" y="152" type="qcurve" smooth="yes" name="inserted"/>
      <point x="174" y="159"/>
      <point x="133" y="172"/>
      <point x="116" y="184" type="qcurve" smooth="yes" name="inserted"/>
      <point x="100" y="195"/>
      <point x="82" y="237"/>
      <point x="87" y="272" type="qcurve" smooth="yes"/>
      <point x="91" y="303"/>
      <point x="121" y="345"/>
      <point x="141" y="358" type="qcurve" smooth="yes" name="inserted"/>
      <point x="161" y="372"/>
      <point x="205" y="384"/>
      <point x="222" y="384" type="qcurve" smooth="yes"/>
      <point x="232" y="384"/>
      <point x="260" y="380"/>
      <point x="274" y="375" type="qcurve" smooth="yes" name="inserted"/>
      <point x="289" y="370"/>
      <point x="316" y="354"/>
      <point x="325" y="342" type="qcurve"/>
      <point x="312" y="255" type="line"/>
      <point x="238" y="255" type="line"/>
      <point x="245" y="298" type="line"/>
      <point x="238" y="300" name="inserted"/>
      <point x="222" y="303"/>
      <point x="215" y="303" type="qcurve" smooth="yes"/>
      <point x="205" y="303"/>
      <point x="189" y="299"/>
      <point x="183" y="295" type="qcurve" smooth="yes"/>
      <point x="177" y="290"/>
      <point x="170" y="277"/>
      <point x="170" y="268" type="qcurve" smooth="yes"/>
      <point x="170" y="256"/>
      <point x="194" y="241"/>
      <point x="211" y="234" type="qcurve" smooth="yes" name="inserted"/>
      <point x="228" y="227"/>
      <point x="265" y="209"/>
      <point x="280" y="196" type="qcurve" smooth="yes" name="inserted"/>
      <point x="295" y="182"/>
      <point x="311" y="141"/>
      <point x="307" y="110" type="qcurve" smooth="yes"/>
      <point x="305" y="96"/>
      <point x="289" y="56"/>
      <point x="272" y="37" type="qcurve" smooth="yes" name="inserted"/>
      <point x="256" y="18"/>
      <point x="202" y="-8"/>
      <point x="162" y="-8" type="qcurve" smooth="yes"/>
      <point x="125" y="-8"/>
      <point x="59" y="11"/>
    </contour>
  </outline>
</glyph>
<glyph name="y" format="2">
  <advance width="617"/>
  <unicode hex="0079"/>
  <outline>
    <contour>
      <point x="53" y="-171" type="line"/>
      <point x="143" y="-171" type="line"/>
      <point x="170" y="-128"/>
      <point x="225" y="-42"/>
      <point x="253" y="0" type="qcurve"/>
      <point x="226" y="75"/>
      <point x="172" y="221"/>
      <point x="145" y="296" type="qcurve"/>
      <point x="61" y="296" type="line"/>
      <point x="72" y="375" type="line"/>
      <point x="294" y="375" type="line"/>
      <point x="283" y="296" type="line"/>
      <point x="230" y="296" type="line"/>
      <point x="252" y="241"/>
      <point x="294" y="130"/>
      <point x="305" y="74" type="qcurve"/>
      <point x="331" y="130"/>
      <point x="404" y="241"/>
      <point x="441" y="296" type="qcurve"/>
      <point x="379" y="296" type="line"/>
      <point x="390" y="375" type="line"/>
      <point x="619" y="375" type="line"/>
      <point x="608" y="296" type="line"/>
      <point x="526" y="296" type="line"/>
      <point x="451" y="178"/>
      <point x="301" y="-53"/>
      <point x="226" y="-171" type="qcurve"/>
      <point x="275" y="-171" type="line"/>
      <point x="264" y="-250" type="line"/>
      <point x="42" y="-250" type="line"/>
    </contour>
  </outline>
</glyph>
<glyph name="onesuperior" format="2">
  <advance width="273"/>
  <unicode hex="00B9"/>
  <outline>
    <contour>
      <point x="25" y="414" type="line"/>
      <point x="64" y="414" type="line"/>
      <point x="99" y="658" type="line"/>
      <point x="64" y="658" type="line"/>
      <point x="69" y="698" type="line"/>
      <point x="145" y="698" type="line"/>
      <point x="106" y="414" type="line"/>
      <point x="145" y="414" type="line"/>
      <point x="140" y="375" type="line"/>
      <point x="20" y="375" type="line"/>
    </contour>
  </outline>
</glyph>
<glyph name="circumflex" format="2">
  <advance width="390"/>
  <unicode hex="02C6"/>
  <outline>
    <contour>
      <point x="244" y="660" type="line"/>
      <point x="339" y="479" type="line"/>
      <point x="280" y="479" type="line"/>
      <point x="229" y="551" type="line"/>
      <point x="158" y="479" type="line"/>
      <point x="99" y="479" type="line"/>
    </contour>
  </outline>
</glyph>
<glyph name="emdash" format="2">
  <advance width="700"/>
  <unicode hex="2014"/>
  <outline>
    <contour>
      <point x="99" y="174" type="line"/>
      <point x="110" y="255" type="line"/>
      <point x="612" y="255" type="line"/>
      <point x="601" y="174" type="line"/>
    </contour>
  </outline>
</glyph>
<glyph name="guilsinglright" format="2">
  <advance width="392"/>
  <unicode hex="203A"/>
  <outline>
    <contour>
      <point x="130" y="172" type="line"/>
      <point x="149" y="189"/>
      <point x="185" y="222"/>
      <point x="204" y="239" type="qcurve"/>
      <point x="190" y="256"/>
      <point x="163" y="288"/>
      <point x="149" y="305" type="qcurve"/>
      <point x="162" y="400" type="line"/>
      <point x="199" y="359"/>
      <point x="273" y="280"/>
      <point x="310" y="239" type="qcurve"/>
      <point x="117" y="77" type="line"/>
    </contour>
  </outline>
</glyph>
<glyph name="fraction" format="2">
  <advance width="382"/>
  <unicode hex="2044"/>
  <outline>
    <contour>
      <point x="-57" y="0" type="line"/>
      <point x="368" y="755" type="line"/>
      <point x="454" y="755" type="line"/>
      <point x="29" y="0" type="line"/>
    </contour>
  </outline>
</glyph>
<glyph name="minus" format="2">
  <advance width="543"/>
  <unicode hex="2212"/>
  <outline>
    <contour>
      <point x="80" y="190" type="line"/>
      <point x="91" y="271" type="line"/>
      <point x="451" y="271" type="line"/>
      <point x="440" y="190" type="line"/>
    </contour>
  </outline>
</glyph>
<glyph name="divisionslash" format="2">
  <advance width="310"/>
  <unicode hex="2215"/>
  <outline>
    <contour>
      <point x="66" y="-19" type="line"/>
      <point x="-20" y="-19" type="line"/>
      <point x="258" y="735" type="line"/>
      <point x="344" y="735" type="line"/>
    </contour>
  </outline>
</glyph>
